<svg width="26" height="27" viewBox="0 0 26 27" fill="none" xmlns="http://www.w3.org/2000/svg">
<g filter="url(#filter0_d_1131_10161)">
<path fill-rule="evenodd" clip-rule="evenodd" d="M6.5 9.16667C6.5 6.03705 9.03705 3.5 12.1667 3.5C15.2963 3.5 17.8333 6.03705 17.8333 9.16667C17.8333 10.689 17.2331 12.0711 16.2563 13.0892C16.2256 13.1134 16.1961 13.1396 16.1678 13.1679C16.1395 13.1962 16.1133 13.2257 16.0891 13.2564C15.071 14.2331 13.6889 14.8333 12.1667 14.8333C9.03705 14.8333 6.5 12.2963 6.5 9.16667ZM16.8346 15.2489C15.5418 16.2426 13.9232 16.8333 12.1667 16.8333C7.93248 16.8333 4.5 13.4008 4.5 9.16667C4.5 4.93248 7.93248 1.5 12.1667 1.5C16.4008 1.5 19.8333 4.93248 19.8333 9.16667C19.8333 10.9233 19.2426 12.5419 18.2489 13.8347L21.207 16.7929C21.5976 17.1834 21.5976 17.8166 21.207 18.2071C20.8165 18.5976 20.1833 18.5976 19.7928 18.2071L16.8346 15.2489Z" fill="#152826"/>
</g>
<defs>
<filter id="filter0_d_1131_10161" x="-1" y="0" width="28" height="28" filterUnits="userSpaceOnUse" color-interpolation-filters="sRGB">
<feFlood flood-opacity="0" result="BackgroundImageFix"/>
<feColorMatrix in="SourceAlpha" type="matrix" values="0 0 0 0 0 0 0 0 0 0 0 0 0 0 0 0 0 0 127 0" result="hardAlpha"/>
<feOffset dy="4"/>
<feGaussianBlur stdDeviation="2"/>
<feComposite in2="hardAlpha" operator="out"/>
<feColorMatrix type="matrix" values="0 0 0 0 0 0 0 0 0 0 0 0 0 0 0 0 0 0 0.25 0"/>
<feBlend mode="normal" in2="BackgroundImageFix" result="effect1_dropShadow_1131_10161"/>
<feBlend mode="normal" in="SourceGraphic" in2="effect1_dropShadow_1131_10161" result="shape"/>
</filter>
</defs>
</svg>
